<svg xmlns="http://www.w3.org/2000/svg" viewBox="0 0 1080 1080"><defs><style>.cls-1,.cls-2,.cls-3{fill:#231f20;}.cls-2,.cls-3{stroke:#fff;stroke-miterlimit:10;}.cls-2{stroke-width:2.5615px;}.cls-3{stroke-width:2.2816px;}.cls-4{fill:#fff;}</style></defs><title>LizzySilhouetteLogo</title><g id="Layer_1" data-name="Layer 1"><path class="cls-1" d="M875.1425,461.6527c-4.1854-5.0862.2033-8.81,8.6746-12.47,13.2669-5.7313,56.6656-27.9723,56.6656-27.9723l9.3692-6.8467,10.7725-7.8722s.5027-2.18,1.2951-5.7942c.3148-1.4356-9.3018-4.77-8.909-6.6118.6-2.8126,11.2523-4.3711,11.9556-7.8551.8477-4.2,1.736-8.7666,2.5814-13.4088.3809-2.0915-1.594-.6629-3.1008-.1346-5.1928,1.8209-12.172-1.2417-13.7743-6.0485-.2791-.8374.9636-3.4013,2.1348-1.3723,2.7461,4.7574,8.8694,5.159,12.8594,3.685a6.856,6.856,0,0,0,1.9009-.8384c2.5956-2.7635,6.3827-17.5123,2.4534-21.254-7.1259-6.7857-88.8346,6.6507-97.5492,0s-36.2981-77.7817-36.2981-77.7817l-90.7455,10.3708s2.4418,70.1125-20.329,105.8952a9.77,9.77,0,0,1-7.7259,4.7439s21.3477-26.1255,11.9954-93.1841c-1.4172-10.1621-2.7181-13.1169-2.7181-13.1169s-118.166,65.5956-130.7216,58.5908c-6.4381-3.5919-9.4878-18.4336-9.4878-18.4336s-50.15,105.18-84.8483,158.3113-159.32,92.7057-152.8518,64.2442c99.72-20.8711,147.7854-108.8945,147.7854-108.8945l-36.2982-2.5927s59.7793-45.9806,63.3221-73.6591c4.3373-33.8851-7.3482-44.6013-11.6565-34.1562s-40.5875,17.3951-54.7583,18.6707c-46.667,4.2007-148.0819-20.1146-217.9492,44.7623-42.6677,39.62-44.3823,96.6944-60.18,128.4924-45.2327,91.0451-58.5535,109.6308-58.5535,182.1665s38.7849,95.9378,49.39,145.9668c9.57,45.1454-5.6406,144.4407-8.728,183.8033-1.0842,13.8251,4.4728,21.8223,7.3192,23.0992s69.3968,5.5,85.6616.3493c8.4035-1.8975,11.9275-36.8219,4.6084-46.0386-17.0781-5.9637-17.6768,1.152-24.9395-6.6866s4.3373-57.6048,4.3373-57.6048,90.6427-78.47,131.3809-122.8491c14.9993-16.34,152.7121-7.8119,203.1332,1.947,30.3245,5.8692,124.8391,54.4976,160.0991,186.8416,4.207,15.7907,18.8144,31.9208,18.8144,31.9208s88.58.158,100.2-.3276,6.0683-31.0746,0-37.6463c-13.9966-15.158-51.4058-16.7845-51.4058-16.7845l4.7367-129.6527s80.5322-35.9778,112.37-96.971c5.5311-10.5961,22.2526-116.2281,23.5841-127.6792C953.2138,528.0676,882.6978,470.8343,875.1425,461.6527Zm-52.0476-81.5616c-11.029,0-16.5344-1.7111-16.53-10.2671s7.8007-23.9568,18.8114-23.9568c11.029,0,14.2528,15.4007,14.2483,23.9567S834.1057,380.0911,823.0949,380.0911Z"/><path class="cls-2" d="M288.2729,921.0866c-4.7765,12.5951-3.9067,95.0447,0,101.9139s67.54,5.2263,75.4108,0,7.8878-38.6751,0-42.6524-17.4787-.7876-20.7557-2.2984.1091-52.5205.1091-52.5205,62.9287-46.4212,66.4663-51.461,22.0378-40.3745,12.0681-45.63c-6.3637-3.3548-31.54-2.7715-41.1468,5.3244C343.55,864.8375,293.0494,908.4915,288.2729,921.0866Z"/><path class="cls-3" d="M871.6862,829.5323c11.0913-5.8011-21.4358,112.06-15.0919,122.9619,4.7232,8.1167,23.4276,3.61,26.6806,10.1164s10.4863,39.8263,3.253,39.8263c-5.9638,0-10.1285.58-15.7227-2.9593-26.566-16.807-55.2146-20.1956-55.2146-20.1956l.1-23.2846s-1.4425-91.8026,6.638-95.2657C833.7138,855.8523,859.0533,836.14,871.6862,829.5323Z"/></g><g id="Layer_3" data-name="Layer 3"><path class="cls-1" d="M596.8,350.1972s110.0713-46.4363,133.0028-49.3028c52.1693-10.8924,126.6967,4.5863,126.6967,4.5863s-14.3322-46.4363-8.5993-63.635c5.4356-16.3066,35.0932-25.9135,50.8594-44.9456a21.6368,21.6368,0,0,0,3.5933-6.1623c27.6235-73.41-11.84-99.1312-40.6938-101.96-29.2377-2.8665-68.7946,18.9185-68.7946,18.9185s8.0261-59.0487-29.2377-75.6741S630.0506,30.3024,608.8389,56.1,596.8,112.8559,596.8,112.8559s-60.8164.5733-80.5709,32.6774-7.1422,78.5405,18.6557,106.6316,61.9152,0,61.9152,0Z"/><path class="cls-4" d="M602.8994,344.7915a3.4218,3.4218,0,0,1-3.4219-3.4653l.62-49.3452a3.4212,3.4212,0,0,1,2.5039-3.2539c.1953-.0547,19.61-5.4678,30.038-9.271,12.9786-4.7334,27.9366-5.44,35.6983-5.44.2353,0,.4629,0,.6807.002V270.252c-.9727-.0708-2.2012-.126-3.6758-.126-5.5235,0-14.7354.7661-27.249,4.415-5.5547,1.62-32.668,7.7525-33.8194,8.0127a3.4234,3.4234,0,0,1-4.1777-3.3384V262.95a3.4226,3.4226,0,0,1,1.7373-2.9785c1.2334-.6983,30.8193-17.1421,82.7978-20.3618,11.6807-.7232,24.5039-1.09,38.1123-1.09,23.8321,0,44.1563,1.1353,52.1993,1.6538v-1.9482A503.18,503.18,0,0,0,724.36,235.71c-13.6124,0-26.7813.5576-39.1416,1.6577-55.085,4.9033-80.8624,14.4009-81.1163,14.4966-.914.32-20.831,7.2065-38.5576,7.2065-11.1142,0-19.1191-2.751-23.792-8.1772-23.9116-27.7627-37.76-72.6993-17.9648-104.8692,7.6767-12.4765,30.1621-23.4585,52.3017-25.5454,4.5352-.4277,9.17-.6445,13.7754-.6445a139.2916,139.2916,0,0,1,40.1162,5.6592c-8.3642-4.2393-21.7919-7.815-28.6621-8.1514-1.8017-.0884-4.9589-1.1416-5.8652-7.208-2.0684-13.8491,7.5986-51.542,27.457-59.106,19.9785-12.5654,52.4268-20.36,84.8155-20.36,20.6377,0,38.6572,3.1728,52.11,9.1748,30.0684,13.4155,30.5059,54.8789,29.3819,71.5762,11.705-6.85,38.3447-20.8921,60.0351-20.8921,1.5293,0,3.0293.0713,4.458.2109,17.0049,1.667,35.9209,15.1563,46,32.8027,10.3125,18.0552,10.9209,38.9073,1.7119,58.7154-7.332,15.771-22.8164,27.2348-36.4785,37.3491-9.9267,7.35-19.3037,14.292-21.332,20.3784-4.16,12.48,4.4765,46.1626,8.1553,58.0884a3.4229,3.4229,0,0,1-3.9659,4.36c-.3828-.0795-38.7041-7.9384-77.916-7.9384-15.4355,0-29.0635,1.2114-40.5068,3.6006-.0908.019-.1826.0341-.2744.0458-20.9746,2.6216-123.8389,45.9454-124.876,46.3829A3.4221,3.4221,0,0,1,602.8994,344.7915Z"/><path class="cls-1" d="M707.7256,34.09c19.0292,0,37.1528,2.8263,50.7165,8.8778,35.2405,15.7227,26.7015,74.9539,26.7015,74.9539s36.729-23.9748,64.1109-23.9732c1.4,0,2.7785.0628,4.1235.1947,27.2809,2.6746,66.4928,40.3145,44.9419,86.6693-12.6552,27.2206-52.6813,42.27-57.9538,58.088-5.4216,16.2649,8.1324,60.18,8.1324,60.18s-38.5658-8.01-78.6131-8.01c-14.0892,0-28.3646.9919-41.2047,3.6728-21.6865,2.7108-125.7816,46.6259-125.7816,46.6259l.62-49.3456s19.6159-5.4581,30.2934-9.3523c12.6552-4.6154,27.49-5.233,34.5264-5.233,2.5721,0,4.1026.0825,4.1026.0825V267.22a37.8573,37.8573,0,0,0-7.0984-.5159c-5.91,0-15.4231.8237-28.2072,4.5514-5.518,1.609-33.6168,7.96-33.6168,7.96V262.95s29.5359-16.7163,81.3243-19.9245c12.8669-.797,25.8579-1.0839,37.9-1.0838,30.9595,0,55.6235,1.8971,55.6235,1.8971v-8.6746a480.3077,480.3077,0,0,0-54.0047-2.8775c-12.1849,0-25.6318.442-39.4472,1.6716C628.73,238.96,602.8991,248.66,602.8991,248.66s-20.0046,6.9883-37.3541,6.9883c-8.674,0-16.6856-1.7474-21.1994-6.9883-23.5384-27.33-36.3249-70.4812-17.6429-100.8422,7.4233-12.0642,29.5073-22.0274,49.7084-23.9318,4.6165-.4352,9.114-.6293,13.4544-.6292,19.5711,0,35.9,3.9486,45.0314,7.5418a22.84,22.84,0,0,1,7.9291,5.286s-2.4344-8.4318-8.6746-12.1986c-8.4912-5.1254-24.7075-9.5729-32.6653-9.9622-7.9638-.39.8133-51.8443,22.9517-59.8118C644.5861,41.3072,677.314,34.09,707.7256,34.09m0-6.8447v0c-32.8426,0-65.8355,7.9232-86.3529,20.7078-12.2574,4.8433-19.6461,18.5141-23.7074,29.2428-4.5427,12.0008-6.7916,25.4407-5.5961,33.4435a14.9282,14.9282,0,0,0,2.0036,5.8293q-2.0664-.0563-4.2071-.0572c-4.7113,0-9.4543.2218-14.097.6594-20.1433,1.8989-45.4679,11.8377-54.8957,27.1592-9.6569,15.6942-12.3813,35.2524-7.8784,56.56a119.6175,119.6175,0,0,0,26.1646,52.336c5.3529,6.215,14.23,9.3663,26.3857,9.3663,13.8347,0,28.8986-4.041,35.7984-6.143-.6717.35-1.0721.5737-1.1955.6435a6.845,6.845,0,0,0-3.4734,5.957v16.2648a6.8448,6.8448,0,0,0,4.4287,6.4043,6.8455,6.8455,0,0,0-4.4282,6.3183l-.62,49.3456a6.8449,6.8449,0,0,0,9.5048,6.3926c28.7115-12.1125,106.9524-44.0134,123.97-46.1406q.2767-.0345.55-.0916c11.2131-2.3412,24.6057-3.5282,39.8057-3.5282,38.8941,0,76.8424,7.7883,77.2212,7.867a6.8448,6.8448,0,0,0,7.9323-8.72c-4.987-16.1747-11.6178-45.6813-8.1793-55.9969,1.6872-5.0614,11.0589-12,20.1222-18.71,13.99-10.3572,29.8456-22.0963,37.5449-38.6571,9.69-20.8422,9.0354-42.81-1.8429-61.8555-10.5955-18.5511-30.5962-32.7427-48.638-34.5115-1.5382-.1508-3.15-.2274-4.791-.2274-19.5479-.0012-42.761,10.8686-56.3588,18.308.4162-19.8749-3.0307-55.9194-31.665-68.6948-13.8881-6.1962-32.39-9.4714-53.5054-9.4716Z"/></g></svg>