<svg xmlns="http://www.w3.org/2000/svg" viewBox="0 0 1080 1080"><defs><style>.cls-1{font-size:86.4282px;}.cls-1,.cls-10,.cls-11,.cls-4,.cls-9{fill:#231f20;}.cls-1,.cls-4{font-family:ACaslonPro-Semibold, Adobe Caslon Pro;font-weight:600;}.cls-2{letter-spacing:0.015em;}.cls-3{letter-spacing:0.01em;}.cls-4{font-size:80.5257px;}.cls-5{letter-spacing:0.01em;}.cls-6{letter-spacing:0.005em;}.cls-7{letter-spacing:0em;}.cls-8{fill:none;stroke:#231f20;stroke-width:5px;}.cls-10,.cls-11,.cls-8{stroke-miterlimit:10;}.cls-10,.cls-11{stroke:#fff;}.cls-10{stroke-width:1.692px;}.cls-11{stroke-width:1.5071px;}.cls-12{fill:#fff;}</style></defs><title>LizzySilhouetteLogo_withtext</title><g id="Layer_4" data-name="Layer 4"><text class="cls-1" transform="translate(272.0767 860.6484)"><tspan class="cls-2">L</tspan><tspan x="59.2031" y="0">eslie Gi</tspan><tspan class="cls-3" x="325.8296" y="0">l</tspan><tspan x="349.1636" y="0">liams</tspan></text><text class="cls-4" transform="translate(68.9719 971.4229)">G<tspan class="cls-5" x="67.2383" y="0">O</tspan><tspan x="136.4893" y="0">URM</tspan><tspan class="cls-6" x="334.2583" y="0">E</tspan><tspan x="389.8999" y="0">T </tspan><tspan class="cls-5" x="464.9478" y="0">DO</tspan><tspan x="602.3228" y="0">G F</tspan><tspan class="cls-5" x="737.0405" y="0">O</tspan><tspan class="cls-7" x="806.2915" y="0">OD</tspan></text><line class="cls-8" x1="175.0104" y1="882.7793" x2="904.9906" y2="882.7793"/></g><g id="Layer_3" data-name="Layer 3"><path class="cls-9" d="M757.3632,372.4394c-2.7647-3.36.1343-5.82,5.73-8.237,8.7636-3.7859,37.4311-18.4774,37.4311-18.4774l6.1889-4.5227,7.1159-5.2s.3321-1.44.8556-3.8274c.2079-.9483-6.1444-3.1511-5.885-4.3675.3963-1.8579,7.4329-2.8874,7.8974-5.1888.56-2.7743,1.1468-5.7909,1.7052-8.8573.2516-1.3816-1.053-.438-2.0482-.0889-3.43,1.2028-8.04-.82-9.0988-3.9954-.1844-.5532.6365-2.2469,1.41-.9066,1.814,3.1426,5.8588,3.4079,8.4945,2.4342a4.53,4.53,0,0,0,1.2556-.5538c1.7146-1.8255,4.2162-11.568,1.6206-14.04-4.7071-4.4824-58.6807,4.3932-64.4372,0s-23.9772-51.38-23.9772-51.38l-59.943,6.8506s1.613,33.3136-13.4285,56.95a6.4539,6.4539,0,0,1-5.1034,3.1337s14.1014-4.2576,7.9237-48.5539c-.9362-6.7127-1.7955-8.6645-1.7955-8.6645s-78.0559,43.33-86.35,38.7028c-4.2528-2.3727-6.2672-12.1765-6.2672-12.1765s-33.1272,69.4775-56.0476,104.5743-105.24,61.2379-100.9681,42.4373c65.8712-13.7867,97.6215-71.9316,97.6215-71.9316l-23.9773-1.7126s39.4879-30.373,41.8282-48.6563c2.8651-22.3832-4.854-29.462-7.7-22.5623s-26.8106,11.49-36.1713,12.3331c-30.8264,2.7749-97.8172-13.2869-143.9689,29.5683-28.1846,26.1714-29.3172,63.8726-39.7526,84.8771-29.879,60.1409-38.6782,72.4179-38.6782,120.3322s25.62,63.3729,32.6253,96.42c6.3215,29.8213-3.726,95.412-5.7654,121.4134-.7162,9.1324,2.9545,14.415,4.8347,15.2585s45.8409,3.633,56.5848.2307c5.5511-1.2534,7.8789-24.3231,3.0442-30.4114-11.2812-3.9394-11.6767.7611-16.4741-4.4169s2.865-38.0515,2.865-38.0515,59.8751-51.8344,86.7852-81.1493c9.908-10.7934,100.8758-5.16,134.182,1.286,20.0312,3.877,82.4639,35.999,105.7553,123.42,2.779,10.4308,12.4281,21.0857,12.4281,21.0857s58.5124.1044,66.1886-.2164,4.0084-20.5267,0-24.8677c-9.2457-10.0128-33.9568-11.0872-33.9568-11.0872l3.1289-85.6436s53.1965-23.7656,74.2275-64.0554c3.6537-6.9993,14.6992-76.7758,15.5788-84.34C808.9341,416.3105,762.354,378.5044,757.3632,372.4394ZM722.9826,318.563c-7.2854,0-10.922-1.13-10.919-6.7822s5.1528-15.8249,12.4261-15.8249c7.2853,0,9.4149,10.1732,9.4118,15.8249S730.2559,318.563,722.9826,318.563Z"/><path class="cls-10" d="M369.7,675.9238c-3.1552,8.32-2.5807,62.7829,0,67.32s44.6144,3.4523,49.8135,0,5.21-25.5473,0-28.1745-11.5458-.52-13.71-1.5183.0721-34.693.0721-34.693,41.5683-30.6641,43.9051-33.9932,14.5573-26.67,7.9717-30.1416c-4.2036-2.2161-20.8341-1.8307-27.18,3.5171C406.2136,638.7678,372.8548,667.6039,369.7,675.9238Z"/><path class="cls-11" d="M755.08,615.4466c7.3265-3.8321-14.16,74.0225-9.9691,81.2238,3.12,5.3616,15.4754,2.3849,17.6242,6.6825s6.9268,26.3078,2.1488,26.3078c-3.94,0-6.6905.383-10.3859-1.9548a97.8619,97.8619,0,0,0-36.4726-13.34l.0659-15.381s-.9528-60.6413,4.3848-62.9288C729.997,632.8325,746.7353,619.8112,755.08,615.4466Z"/><path class="cls-9" d="M573.5007,298.8162s72.7089-30.6741,87.8566-32.5676c34.461-7.1951,83.691,3.03,83.691,3.03s-9.4673-30.6741-5.68-42.0349c3.5905-10.7715,23.1812-17.1175,33.5958-29.6893a14.2957,14.2957,0,0,0,2.3736-4.0706c18.247-48.4918-7.8207-65.4823-26.8808-67.3509-19.3133-1.8934-45.443,12.4969-45.443,12.4969S708.3152,99.6241,683.7,88.642s-88.2353-1.1361-102.2469,15.9051-7.9526,37.4905-7.9526,37.4905-40.1729.3787-53.222,21.5854-4.7179,51.8809,12.3233,70.4368,40.8987,0,40.8987,0Z"/><path class="cls-12" d="M577.5293,295.2456a2.2617,2.2617,0,0,1-2.2607-2.2891l.41-32.5957a2.2616,2.2616,0,0,1,1.6543-2.1494c.1289-.0356,12.9541-3.6118,19.8428-6.1235,8.5722-3.127,18.4531-3.5938,23.58-3.5938.1562,0,.3056,0,.45.001v-2.4878c-.6426-.0469-1.4541-.083-2.4278-.083a65.0886,65.0886,0,0,0-18,2.916c-3.67,1.07-21.58,5.1211-22.3408,5.293a2.2615,2.2615,0,0,1-2.7588-2.2051V241.1841a2.2609,2.2609,0,0,1,1.1475-1.9673c.8154-.4614,20.3584-11.3232,54.6933-13.45,7.7159-.478,16.1866-.72,25.1758-.72,15.7422,0,29.168.75,34.4805,1.0928v-1.2876a332.3569,332.3569,0,0,0-33.4151-1.6617c-8.99,0-17.6894.3682-25.8544,1.0948-36.2833,3.23-53.4151,9.5132-53.584,9.5761-.6016.211-13.7578,4.76-25.4678,4.76-7.3408,0-12.6289-1.8174-15.7158-5.4019-15.7949-18.3383-24.9429-48.0214-11.8667-69.2719,5.0713-8.2412,19.9243-15.4956,34.5493-16.8745,2.9951-.2823,6.0566-.4258,9.0986-.4258a92.0213,92.0213,0,0,1,26.503,3.74c-5.5254-2.8013-14.3975-5.164-18.9366-5.3862-1.0449-.0513-2.9209-.6-3.749-3.7031-2.248-8.42,3.5635-33.0328,15.334-40.586,14.498-8.8276,34.6055-13.8745,55.2119-13.8745,14.3731,0,27.8379,2.4756,37.9131,6.9712,19.8623,8.8618,20.1514,36.2505,19.4082,47.28,7.7314-4.5244,25.3291-13.8008,39.6582-13.8008,1.01,0,2.001.0469,2.9443.14,11.2325,1.1011,23.7276,10.0113,30.3858,21.668,6.8115,11.9268,7.2129,25.7007,1.13,38.7852-4.8438,10.4175-15.0713,17.99-24.0957,24.6714-6.5577,4.8549-12.751,9.44-14.0909,13.4609-2.75,8.25,2.9561,30.4956,5.3877,38.3716a2.2606,2.2606,0,0,1-2.62,2.88c-.2519-.0528-25.5674-5.2442-51.47-5.2442a132.92,132.92,0,0,0-26.7559,2.3784c-.0595.0127-.1211.0225-.1816.03-13.8535,1.7315-81.8037,30.35-82.4883,30.6387A2.26,2.26,0,0,1,577.5293,295.2456Z"/><path class="cls-9" d="M643.283,89.0974c13.9032,0,27.0794,2.3522,36.9924,6.775,23.2786,10.3858,17.6379,49.5116,17.6379,49.5116s24.2618-15.8368,42.3493-15.8358c.9248,0,1.8353.0415,2.7238.1287,18.0207,1.7667,43.9227,26.63,29.6869,57.25-8.36,17.9808-34.7992,27.9222-38.2821,38.3707-3.5813,10.7439,5.372,39.7526,5.372,39.7526s-25.4749-5.2912-51.9287-5.2912a135.7853,135.7853,0,0,0-27.2184,2.4261c-14.3252,1.7907-83.0864,30.7993-83.0864,30.7993l.41-32.5958s12.9575-3.6055,20.0106-6.1778c8.36-3.0487,18.1591-3.4568,22.8069-3.4568,1.6991,0,2.71.0546,2.71.0546v-6.8045a25.0084,25.0084,0,0,0-4.6891-.3408,67.2676,67.2676,0,0,0-18.6324,3.0065c-3.6451,1.0628-22.206,5.2579-22.206,5.2579V241.1842s19.51-11.0422,53.72-13.1613c8.4993-.5265,17.08-.7161,25.0343-.716,20.4506,0,36.7433,1.2532,36.7433,1.2532v-5.73a317.2787,317.2787,0,0,0-35.6733-1.9007c-8.0489,0-16.9315.2919-26.0575,1.1042-37.1135,3.3035-54.1762,9.711-54.1762,9.711s-13.2143,4.6162-24.6747,4.6162c-5.73,0-11.0219-1.1543-14.0036-4.6162-15.5485-18.0531-23.9948-46.5571-11.6541-66.6125,4.9036-7.9691,19.4913-14.55,32.8354-15.8085,3.0495-.2874,6.02-.4156,8.8873-.4156,12.928,0,23.714,2.6083,29.7461,4.9818a15.0874,15.0874,0,0,1,5.2377,3.4918s-1.608-5.57-5.73-8.058c-5.6089-3.3856-16.3208-6.3234-21.5774-6.5806-5.2606-.2574-.2252-31.8376,12.6956-40.1289,15.1782-9.241,35.2457-13.5166,53.9911-13.5165m0-4.521v0c-21.0089,0-41.5448,5.1668-56.3421,14.1759-.03.0185-.0607.0374-.0906.0566-12.7454,8.1787-18.7449,33.903-16.2978,43.0717a8.8748,8.8748,0,0,0,1.09,2.5425q-1.3365-.0357-2.7223-.0363c-3.1121,0-6.245.1465-9.3117.4356-13.3059,1.2543-30.034,7.82-36.2617,17.94-13.6444,22.1744-4.2515,52.9712,12.079,71.9322,3.5358,4.1053,9.4,6.1869,17.4291,6.1869,9.1424,0,19.0963-2.6712,23.6516-4.0593-.4463.2325-.7123.3811-.794.4274a4.5209,4.5209,0,0,0-2.2942,3.9345v10.7439a4.5208,4.5208,0,0,0,2.9262,4.23,4.5211,4.5211,0,0,0-2.9259,4.1737l-.41,32.5958a4.5211,4.5211,0,0,0,6.278,4.2224c18.9657-8.0011,70.6487-29.0736,81.89-30.4788q.1829-.0228.3633-.06a130.6875,130.6875,0,0,1,26.2943-2.3307c25.6533,0,50.7594,5.1449,51.01,5.1969a4.5217,4.5217,0,0,0,5.2388-5.7594c-3.2945-10.6851-7.6745-30.1761-5.4032-36.99,1.1145-3.3435,7.3053-7.9268,13.2921-12.3592,9.2409-6.8415,19.7148-14.5959,24.8006-25.5352,6.4007-13.7675,5.9684-28.2781-1.2173-40.859-6.999-12.254-20.2105-21.6284-32.128-22.7968-1.0159-.1-2.0805-.15-3.1646-.15-12.9127-.0007-28.2469,7.18-37.2291,12.0939.2754-13.1278-2-36.938-20.9165-45.3775-10.359-4.6217-24.1507-7.1671-38.8344-7.1672Z"/></g></svg>